<mxfile host="app.diagrams.net" modified="2024-04-14T07:51:13.554Z" agent="Mozilla/5.0 (Macintosh; Intel Mac OS X 10_15_7) AppleWebKit/605.1.15 (KHTML, like Gecko) Version/17.2.1 Safari/605.1.15" version="24.2.5" etag="qFsClSO02mCj3K28CQjN" type="github">
  <diagram name="Page-1" id="_pjQIELCY5WydaOwyci1">
    <mxGraphModel>
      <root>
        <mxCell id="0" />
        <mxCell id="1" parent="0" />
      </root>
    </mxGraphModel>
  </diagram>
</mxfile>
